<svg width="150" height="27" viewBox="18 16 236 42" fill="none" xmlns="http://www.w3.org/2000/svg">
  <defs>
    <linearGradient id="teal" x1="8" y1="8" x2="340" y2="64" gradientUnits="userSpaceOnUse">
      <stop stop-color="#22D3EE"/>
      <stop offset="0.55" stop-color="#14B8A6"/>
      <stop offset="1" stop-color="#0F766E"/>
    </linearGradient>
  </defs>

  <!-- Book icon -->
  <g stroke="url(#teal)" stroke-width="4" stroke-linecap="round" stroke-linejoin="round">
    <path d="M18 18H34C43 18 50 22 54 28V58C50 52 43 48 34 48H18V18Z"/>
    <path d="M90 18H74C65 18 58 22 54 28V58C58 52 65 48 74 48H90V18Z"/>
    <path d="M54 28V58"/>
  </g>

  <!-- Code symbol -->
  <g stroke="url(#teal)" stroke-width="4" stroke-linecap="round" stroke-linejoin="round">
    <path d="M39 32L30 38L39 44"/>
    <path d="M69 32L78 38L69 44"/>
    <path d="M61 30L47 46"/>
  </g>

  <!-- Text -->
  <text
    x="112"
    y="46"
    fill="url(#teal)"
    font-family="Inter, ui-sans-serif, system-ui, -apple-system, BlinkMacSystemFont, 'Segoe UI', sans-serif"
    font-size="28"
    font-weight="800"
    letter-spacing="-0.8"
  >
    Jacky Dev
  </text>
</svg>