<svg
  xmlns="http://www.w3.org/2000/svg"
  width="1600"
  height="686"
  viewBox="0 0 1600 686"
  role="img"
  aria-labelledby="title desc"
>
  <title id="title">Next.js App Router Server Client Boundary Banner</title>
  <desc id="desc">
    Abstract Next.js App Router banner showing the boundary between server
    components and client components, with RSC payload flowing through the use
    client boundary.
  </desc>
  <defs>
    <linearGradient id="bg" x1="0" x2="1" y1="0" y2="1">
      <stop offset="0" stop-color="#06111f" />
      <stop offset="0.48" stop-color="#082f49" />
      <stop offset="1" stop-color="#134e4a" />
    </linearGradient>
    <linearGradient id="serverPanel" x1="0" x2="1" y1="0" y2="1">
      <stop offset="0" stop-color="#e0f2fe" />
      <stop offset="1" stop-color="#c7d2fe" />
    </linearGradient>
    <linearGradient id="clientPanel" x1="0" x2="1" y1="0" y2="1">
      <stop offset="0" stop-color="#ccfbf1" />
      <stop offset="1" stop-color="#fef3c7" />
    </linearGradient>
    <linearGradient id="boundary" x1="0" x2="0" y1="0" y2="1">
      <stop offset="0" stop-color="#38bdf8" stop-opacity="0.24" />
      <stop offset="0.5" stop-color="#22d3ee" stop-opacity="0.9" />
      <stop offset="1" stop-color="#facc15" stop-opacity="0.28" />
    </linearGradient>
    <linearGradient id="payload" x1="0" x2="1" y1="0" y2="0">
      <stop offset="0" stop-color="#bae6fd" stop-opacity="0.1" />
      <stop offset="0.48" stop-color="#67e8f9" stop-opacity="0.88" />
      <stop offset="1" stop-color="#fef08a" stop-opacity="0.24" />
    </linearGradient>
    <radialGradient id="glow" cx="50%" cy="50%" r="54%">
      <stop offset="0" stop-color="#ecfeff" stop-opacity="0.34" />
      <stop offset="1" stop-color="#ecfeff" stop-opacity="0" />
    </radialGradient>
    <pattern id="grid" width="44" height="44" patternUnits="userSpaceOnUse">
      <path d="M44 0H0V44" fill="none" stroke="#e0f2fe" stroke-opacity="0.12" />
      <circle cx="0" cy="0" r="1.8" fill="#a5f3fc" fill-opacity="0.24" />
    </pattern>
    <filter id="shadow" x="-20%" y="-20%" width="140%" height="140%">
      <feDropShadow
        dx="0"
        dy="18"
        stdDeviation="18"
        flood-color="#020617"
        flood-opacity="0.32"
      />
    </filter>
  </defs>
  <rect width="1600" height="686" fill="url(#bg)" />
  <rect width="1600" height="686" fill="url(#grid)" opacity="0.72" />
  <ellipse cx="800" cy="342" rx="610" ry="286" fill="url(#glow)" />

  <path
    d="M174 348C302 258 416 424 548 342C664 270 736 306 800 342C890 392 972 270 1094 342C1228 420 1350 282 1468 346"
    fill="none"
    stroke="url(#payload)"
    stroke-linecap="round"
    stroke-width="16"
    opacity="0.72"
  />
  <path
    d="M178 220C326 168 440 204 552 178C664 154 720 190 800 218C900 252 1010 172 1132 198C1272 228 1370 178 1462 132"
    fill="none"
    stroke="#99f6e4"
    stroke-linecap="round"
    stroke-width="6"
    opacity="0.22"
  />

  <g filter="url(#shadow)">
    <rect
      x="144"
      y="158"
      width="456"
      height="370"
      rx="30"
      fill="#f8fafc"
      opacity="0.94"
    />
    <rect
      x="174"
      y="188"
      width="188"
      height="34"
      rx="17"
      fill="#0f172a"
      opacity="0.9"
    />
    <text
      x="268"
      y="211"
      fill="#e0f2fe"
      font-family="Inter, Segoe UI, Arial, sans-serif"
      font-size="17"
      font-weight="700"
      text-anchor="middle"
    >
      SERVER
    </text>
    <rect
      x="190"
      y="264"
      width="180"
      height="88"
      rx="18"
      fill="url(#serverPanel)"
    />
    <rect x="414" y="264" width="126" height="88" rx="18" fill="#dbeafe" />
    <rect x="190" y="390" width="350" height="76" rx="18" fill="#e0f2fe" />
  </g>

  <g filter="url(#shadow)">
    <rect
      x="1000"
      y="158"
      width="456"
      height="370"
      rx="30"
      fill="#f8fafc"
      opacity="0.94"
    />
    <rect
      x="1030"
      y="188"
      width="188"
      height="34"
      rx="17"
      fill="#0f172a"
      opacity="0.9"
    />
    <text
      x="1124"
      y="211"
      fill="#ccfbf1"
      font-family="Inter, Segoe UI, Arial, sans-serif"
      font-size="17"
      font-weight="700"
      text-anchor="middle"
    >
      CLIENT
    </text>
    <rect
      x="1060"
      y="264"
      width="170"
      height="88"
      rx="18"
      fill="url(#clientPanel)"
    />
    <rect x="1270" y="264" width="126" height="88" rx="18" fill="#dcfce7" />
    <rect x="1060" y="390" width="336" height="76" rx="18" fill="#fef9c3" />
  </g>

  <g filter="url(#shadow)">
    <rect
      x="704"
      y="104"
      width="192"
      height="478"
      rx="28"
      fill="#020617"
      opacity="0.74"
    />
    <rect
      x="742"
      y="150"
      width="116"
      height="386"
      rx="58"
      fill="url(#boundary)"
    />
    <rect x="722" y="294" width="156" height="72" rx="20" fill="#f8fafc" />
    <text
      x="800"
      y="325"
      fill="#0f172a"
      font-family="Inter, Segoe UI, Arial, sans-serif"
      font-size="18"
      font-weight="800"
      text-anchor="middle"
    >
      "use client"
    </text>
    <text
      x="800"
      y="348"
      fill="#0f766e"
      font-family="Inter, Segoe UI, Arial, sans-serif"
      font-size="13"
      font-weight="700"
      text-anchor="middle"
    >
      BOUNDARY
    </text>
  </g>

  <g fill="none" stroke-linecap="round" stroke-linejoin="round">
    <path d="M540 308H690" stroke="#bae6fd" stroke-width="8" opacity="0.64" />
    <path d="M910 308H1060" stroke="#fef08a" stroke-width="8" opacity="0.64" />
    <path
      d="M680 292L706 308L680 324"
      stroke="#bae6fd"
      stroke-width="8"
      opacity="0.7"
    />
    <path
      d="M1050 292L1076 308L1050 324"
      stroke="#fef08a"
      stroke-width="8"
      opacity="0.7"
    />
    <path
      d="M540 430H690"
      stroke="#67e8f9"
      stroke-width="5"
      stroke-dasharray="12 16"
      opacity="0.42"
    />
    <path
      d="M910 430H1060"
      stroke="#fde68a"
      stroke-width="5"
      stroke-dasharray="12 16"
      opacity="0.42"
    />
  </g>

  <g fill="#0f172a" opacity="0.72">
    <rect x="220" y="294" width="116" height="14" rx="7" />
    <rect x="220" y="326" width="86" height="10" rx="5" />
    <circle cx="476" cy="308" r="24" />
    <rect x="222" y="414" width="132" height="12" rx="6" />
    <rect x="222" y="438" width="250" height="10" rx="5" />
    <rect x="1090" y="294" width="104" height="14" rx="7" />
    <rect x="1090" y="326" width="74" height="10" rx="5" />
    <circle cx="1332" cy="308" r="24" />
    <rect x="1092" y="414" width="132" height="12" rx="6" />
    <rect x="1092" y="438" width="238" height="10" rx="5" />
  </g>

  <g
    fill="none"
    stroke="#0f172a"
    stroke-linecap="round"
    stroke-linejoin="round"
    stroke-width="7"
    opacity="0.66"
  >
    <path d="M454 308h44M476 286v44" />
    <path d="M430 294c14 -18 78 -18 92 0" />
    <path d="M1314 296h36v30h-36z" />
    <path d="M1322 296v-14h20v14" />
    <path d="M1332 326v14" />
  </g>

  <g
    font-family="Inter, Segoe UI, Arial, sans-serif"
    font-weight="800"
    text-anchor="middle"
  >
    <text x="284" y="592" fill="#e0f2fe" font-size="24">
      data, secrets, RSC payload
    </text>
    <text x="1316" y="592" fill="#ccfbf1" font-size="24">
      state, events, browser APIs
    </text>
  </g>

  <g fill="#ffffff" opacity="0.22">
    <circle cx="644" cy="142" r="5" />
    <circle cx="644" cy="550" r="7" />
    <circle cx="956" cy="142" r="6" />
    <circle cx="956" cy="550" r="5" />
    <circle cx="800" cy="78" r="4" />
    <circle cx="800" cy="614" r="6" />
  </g>
</svg>
