<svg xmlns="http://www.w3.org/2000/svg" width="1600" height="686" viewBox="0 0 1600 686" role="img" aria-labelledby="title desc">
  <title id="title">Code Wave Banner</title>
  <desc id="desc">Abstract dark banner with code-like lines and a flowing cyan wave.</desc>
  <defs>
    <linearGradient id="bg" x1="0" x2="1" y1="0" y2="1">
      <stop offset="0" stop-color="#111827"/>
      <stop offset="0.54" stop-color="#123047"/>
      <stop offset="1" stop-color="#0f766e"/>
    </linearGradient>
    <linearGradient id="wave" x1="0" x2="1" y1="0" y2="0">
      <stop offset="0" stop-color="#67e8f9" stop-opacity="0.1"/>
      <stop offset="0.48" stop-color="#22d3ee" stop-opacity="0.55"/>
      <stop offset="1" stop-color="#14b8a6" stop-opacity="0.18"/>
    </linearGradient>
  </defs>
  <rect width="1600" height="686" fill="url(#bg)"/>
  <path d="M0 410C180 310 310 525 500 412C705 290 835 288 1010 385C1210 496 1390 310 1600 366V686H0Z" fill="url(#wave)"/>
  <g fill="none" stroke="#e5e7eb" stroke-linecap="round" stroke-width="8" opacity="0.2">
    <path d="M122 154h210"/>
    <path d="M122 214h330"/>
    <path d="M122 274h250"/>
    <path d="M1160 148h250"/>
    <path d="M1080 210h330"/>
    <path d="M1188 272h180"/>
  </g>
  <g fill="#ffffff" opacity="0.18">
    <circle cx="720" cy="160" r="6"/>
    <circle cx="785" cy="206" r="6"/>
    <circle cx="854" cy="150" r="6"/>
    <circle cx="930" cy="220" r="6"/>
  </g>
</svg>
