<svg xmlns="http://www.w3.org/2000/svg" width="1600" height="686" viewBox="0 0 1600 686" role="img" aria-labelledby="title desc">
  <title id="title">Content Flow Banner</title>
  <desc id="desc">Editorial banner with layered panels and flowing content lines.</desc>
  <defs>
    <linearGradient id="bg" x1="0" x2="1" y1="0" y2="1">
      <stop offset="0" stop-color="#0b1324"/>
      <stop offset="0.5" stop-color="#354f52"/>
      <stop offset="1" stop-color="#84a98c"/>
    </linearGradient>
  </defs>
  <rect width="1600" height="686" fill="url(#bg)"/>
  <g opacity="0.86">
    <rect x="178" y="134" width="420" height="284" rx="20" fill="#f8fafc"/>
    <rect x="232" y="198" width="248" height="18" rx="9" fill="#334155"/>
    <rect x="232" y="250" width="300" height="12" rx="6" fill="#64748b"/>
    <rect x="232" y="288" width="230" height="12" rx="6" fill="#94a3b8"/>
    <rect x="232" y="336" width="112" height="34" rx="17" fill="#0f766e"/>
  </g>
  <g opacity="0.72">
    <rect x="590" y="248" width="402" height="254" rx="20" fill="#e2e8f0"/>
    <rect x="644" y="314" width="210" height="16" rx="8" fill="#1f2937"/>
    <rect x="644" y="362" width="288" height="12" rx="6" fill="#64748b"/>
    <rect x="644" y="400" width="238" height="12" rx="6" fill="#94a3b8"/>
  </g>
  <g opacity="0.58">
    <rect x="990" y="104" width="430" height="302" rx="22" fill="#ffffff"/>
    <rect x="1048" y="178" width="260" height="18" rx="9" fill="#334155"/>
    <rect x="1048" y="232" width="312" height="12" rx="6" fill="#64748b"/>
    <rect x="1048" y="270" width="238" height="12" rx="6" fill="#94a3b8"/>
    <rect x="1048" y="318" width="132" height="34" rx="17" fill="#52796f"/>
  </g>
  <path d="M170 542C404 470 545 606 760 526C980 444 1118 504 1430 426" fill="none" stroke="#cad2c5" stroke-linecap="round" stroke-width="12" opacity="0.45"/>
</svg>
