<svg xmlns="http://www.w3.org/2000/svg" width="1600" height="686" viewBox="0 0 1600 686" role="img" aria-labelledby="title desc">
  <title id="title">React Hooks Banner</title>
  <desc id="desc">Abstract React Hooks banner with state nodes, dependency loops, and luminous component flow.</desc>
  <defs>
    <linearGradient id="bg" x1="0" x2="1" y1="0" y2="1">
      <stop offset="0" stop-color="#08111f"/>
      <stop offset="0.46" stop-color="#17304f"/>
      <stop offset="1" stop-color="#245f5d"/>
    </linearGradient>
    <linearGradient id="flow" x1="0" x2="1" y1="0" y2="0">
      <stop offset="0" stop-color="#38bdf8" stop-opacity="0.16"/>
      <stop offset="0.48" stop-color="#e0f2fe" stop-opacity="0.82"/>
      <stop offset="1" stop-color="#86efac" stop-opacity="0.24"/>
    </linearGradient>
    <linearGradient id="card" x1="0" x2="1" y1="0" y2="1">
      <stop offset="0" stop-color="#f8fafc" stop-opacity="0.95"/>
      <stop offset="1" stop-color="#cffafe" stop-opacity="0.82"/>
    </linearGradient>
    <radialGradient id="glow" cx="50%" cy="48%" r="54%">
      <stop offset="0" stop-color="#bae6fd" stop-opacity="0.54"/>
      <stop offset="1" stop-color="#bae6fd" stop-opacity="0"/>
    </radialGradient>
    <filter id="softShadow" x="-20%" y="-20%" width="140%" height="140%">
      <feDropShadow dx="0" dy="18" stdDeviation="24" flood-color="#020617" flood-opacity="0.3"/>
    </filter>
  </defs>
  <rect width="1600" height="686" fill="url(#bg)"/>
  <ellipse cx="802" cy="322" rx="560" ry="258" fill="url(#glow)" opacity="0.58"/>
  <g fill="none" stroke="url(#flow)" stroke-linecap="round" stroke-linejoin="round">
    <path d="M126 438C292 276 470 304 606 406C754 516 928 494 1056 352C1192 200 1346 248 1480 362" stroke-width="17" opacity="0.72"/>
    <path d="M182 254C342 360 470 170 644 258C764 318 846 214 980 270C1128 332 1250 192 1418 270" stroke-width="7" opacity="0.42"/>
  </g>
  <g filter="url(#softShadow)">
    <rect x="170" y="160" width="322" height="178" rx="22" fill="url(#card)"/>
    <rect x="1106" y="354" width="324" height="178" rx="22" fill="url(#card)"/>
    <rect x="598" y="172" width="410" height="330" rx="30" fill="#0f172a" opacity="0.9"/>
  </g>
  <g fill="#0f172a" opacity="0.68">
    <rect x="220" y="214" width="146" height="14" rx="7"/>
    <rect x="220" y="254" width="220" height="10" rx="5"/>
    <rect x="220" y="286" width="172" height="10" rx="5"/>
    <rect x="1156" y="408" width="162" height="14" rx="7"/>
    <rect x="1156" y="448" width="224" height="10" rx="5"/>
    <rect x="1156" y="480" width="184" height="10" rx="5"/>
  </g>
  <g fill="none" stroke="#93c5fd" stroke-linecap="round" stroke-width="5" opacity="0.58">
    <path d="M710 252C766 198 850 198 906 252"/>
    <path d="M906 252C960 308 960 392 906 448"/>
    <path d="M906 448C850 502 766 502 710 448"/>
    <path d="M710 448C656 392 656 308 710 252"/>
    <path d="M710 252L906 448"/>
    <path d="M906 252L710 448"/>
  </g>
  <g fill="none" stroke="#67e8f9" stroke-linecap="round" stroke-width="6" opacity="0.78">
    <path d="M678 350H802"/>
    <path d="M802 350H930"/>
    <path d="M802 252V448"/>
  </g>
  <g>
    <circle cx="710" cy="252" r="30" fill="#38bdf8"/>
    <circle cx="906" cy="252" r="31" fill="#a7f3d0"/>
    <circle cx="802" cy="350" r="46" fill="#f8fafc"/>
    <circle cx="710" cy="448" r="32" fill="#67e8f9"/>
    <circle cx="906" cy="448" r="33" fill="#fde68a"/>
  </g>
  <g fill="#0f172a" opacity="0.76">
    <rect x="770" y="334" width="64" height="9" rx="4.5"/>
    <rect x="784" y="358" width="36" height="9" rx="4.5"/>
  </g>
  <g fill="#ffffff" opacity="0.22">
    <circle cx="546" cy="126" r="6"/>
    <circle cx="1042" cy="150" r="7"/>
    <circle cx="1120" cy="254" r="5"/>
    <circle cx="526" cy="526" r="7"/>
    <circle cx="1034" cy="552" r="6"/>
    <circle cx="1294" cy="158" r="5"/>
  </g>
</svg>
