<svg xmlns="http://www.w3.org/2000/svg" width="1600" height="686" viewBox="0 0 1600 686" role="img" aria-labelledby="title desc">
  <title id="title">Frontend State Management Banner</title>
  <desc id="desc">Abstract frontend state management banner showing a central store, connected UI components, cached data, and predictable update flow.</desc>
  <defs>
    <linearGradient id="bg" x1="0" x2="1" y1="0" y2="1">
      <stop offset="0" stop-color="#111827"/>
      <stop offset="0.48" stop-color="#155e75"/>
      <stop offset="1" stop-color="#31572c"/>
    </linearGradient>
    <linearGradient id="panel" x1="0" x2="1" y1="0" y2="1">
      <stop offset="0" stop-color="#f8fafc"/>
      <stop offset="1" stop-color="#dbeafe"/>
    </linearGradient>
    <linearGradient id="pulse" x1="0" x2="1" y1="0" y2="0">
      <stop offset="0" stop-color="#38bdf8" stop-opacity="0.2"/>
      <stop offset="0.5" stop-color="#a7f3d0" stop-opacity="0.82"/>
      <stop offset="1" stop-color="#facc15" stop-opacity="0.26"/>
    </linearGradient>
    <radialGradient id="centerGlow" cx="50%" cy="50%" r="50%">
      <stop offset="0" stop-color="#ecfeff" stop-opacity="0.46"/>
      <stop offset="1" stop-color="#ecfeff" stop-opacity="0"/>
    </radialGradient>
    <filter id="softShadow" x="-20%" y="-20%" width="140%" height="140%">
      <feDropShadow dx="0" dy="18" stdDeviation="18" flood-color="#020617" flood-opacity="0.28"/>
    </filter>
  </defs>
  <rect width="1600" height="686" fill="url(#bg)"/>
  <ellipse cx="806" cy="340" rx="586" ry="286" fill="url(#centerGlow)" opacity="0.72"/>
  <path d="M134 438C284 314 416 482 574 356C742 222 884 238 1038 352C1200 472 1348 320 1480 244" fill="none" stroke="url(#pulse)" stroke-linecap="round" stroke-width="18" opacity="0.7"/>
  <path d="M168 214C344 118 474 216 618 166C806 100 1000 142 1168 222C1306 288 1398 246 1500 182" fill="none" stroke="#bae6fd" stroke-linecap="round" stroke-width="6" opacity="0.18"/>

  <g filter="url(#softShadow)">
    <rect x="640" y="190" width="320" height="306" rx="26" fill="#ecfeff" opacity="0.95"/>
    <rect x="686" y="242" width="228" height="40" rx="20" fill="#0f172a" opacity="0.82"/>
    <rect x="704" y="320" width="192" height="22" rx="11" fill="#0891b2" opacity="0.74"/>
    <rect x="704" y="366" width="134" height="22" rx="11" fill="#22c55e" opacity="0.72"/>
    <rect x="704" y="412" width="166" height="22" rx="11" fill="#eab308" opacity="0.76"/>
    <circle cx="800" cy="558" r="52" fill="#a7f3d0"/>
    <path d="M778 558h44M800 536v44" fill="none" stroke="#0f172a" stroke-linecap="round" stroke-width="10" opacity="0.72"/>
  </g>

  <g fill="none" stroke="#cffafe" stroke-linecap="round" stroke-linejoin="round" stroke-width="7" opacity="0.62">
    <path d="M452 210H596C640 210 640 274 684 274"/>
    <path d="M452 476H596C640 476 640 414 684 414"/>
    <path d="M1148 210H1004C960 210 960 274 916 274"/>
    <path d="M1148 476H1004C960 476 960 414 916 414"/>
    <path d="M800 138V190"/>
    <path d="M800 496V506"/>
  </g>

  <g opacity="0.88">
    <rect x="166" y="134" width="286" height="156" rx="20" fill="url(#panel)"/>
    <rect x="214" y="186" width="142" height="16" rx="8" fill="#0f172a" opacity="0.72"/>
    <rect x="214" y="230" width="188" height="10" rx="5" fill="#475569" opacity="0.6"/>
    <circle cx="388" cy="198" r="28" fill="#38bdf8"/>
  </g>
  <g opacity="0.82">
    <rect x="166" y="396" width="286" height="156" rx="20" fill="#f8fafc"/>
    <rect x="214" y="448" width="164" height="16" rx="8" fill="#0f172a" opacity="0.72"/>
    <rect x="214" y="492" width="188" height="10" rx="5" fill="#475569" opacity="0.6"/>
    <circle cx="388" cy="460" r="28" fill="#86efac"/>
  </g>
  <g opacity="0.88">
    <rect x="1148" y="134" width="286" height="156" rx="20" fill="#f8fafc"/>
    <rect x="1196" y="186" width="142" height="16" rx="8" fill="#0f172a" opacity="0.72"/>
    <rect x="1196" y="230" width="188" height="10" rx="5" fill="#475569" opacity="0.6"/>
    <circle cx="1370" cy="198" r="28" fill="#facc15"/>
  </g>
  <g opacity="0.82">
    <rect x="1148" y="396" width="286" height="156" rx="20" fill="url(#panel)"/>
    <rect x="1196" y="448" width="164" height="16" rx="8" fill="#0f172a" opacity="0.72"/>
    <rect x="1196" y="492" width="188" height="10" rx="5" fill="#475569" opacity="0.6"/>
    <circle cx="1370" cy="460" r="28" fill="#5eead4"/>
  </g>

  <g fill="#0f172a" opacity="0.66">
    <path d="M682 274l-18 -12v24z"/>
    <path d="M682 414l-18 -12v24z"/>
    <path d="M918 274l18 -12v24z"/>
    <path d="M918 414l18 -12v24z"/>
  </g>
  <g fill="none" stroke="#0f172a" stroke-linecap="round" stroke-linejoin="round" stroke-width="7" opacity="0.68">
    <path d="M374 198l10 10l22 -26"/>
    <path d="M1356 198l10 10l22 -26"/>
    <path d="M374 460c0 -14 10 -24 24 -24c12 0 22 8 24 20"/>
    <path d="M422 432v24h-24"/>
    <path d="M1352 448h36v28h-36z"/>
    <path d="M1360 448v-14h20v14"/>
  </g>

  <g fill="#ffffff" opacity="0.2">
    <circle cx="530" cy="118" r="6"/>
    <circle cx="560" cy="540" r="8"/>
    <circle cx="1008" cy="116" r="7"/>
    <circle cx="1062" cy="552" r="6"/>
    <circle cx="782" cy="102" r="5"/>
    <circle cx="858" cy="610" r="7"/>
  </g>
</svg>
